<?xml version="1.0" encoding="utf-8"?>
<!-- Generator: Adobe Illustrator 16.0.0, SVG Export Plug-In . SVG Version: 6.00 Build 0)  -->
<!DOCTYPE svg PUBLIC "-//W3C//DTD SVG 1.1//EN" "http://www.w3.org/Graphics/SVG/1.1/DTD/svg11.dtd">
<svg version="1.1" id="" xmlns="http://www.w3.org/2000/svg" xmlns:xlink="http://www.w3.org/1999/xlink" x="0px" y="0px"
	 width="275.426px" height="118.741px" viewBox="0 0 275.426 118.741" enable-background="new 0 0 275.426 118.741"
	 xml:space="preserve">
<g>
	<g>
		<path fill="#FFFFFF" d="M157.489,88.815c-1.604-0.962-2.886-2.243-3.848-3.849c-0.969-1.605-1.447-3.37-1.447-5.301
			c0-1.924,0.479-3.685,1.447-5.288c0.962-1.606,2.243-2.893,3.848-3.854c1.606-0.963,3.371-1.446,5.296-1.446
			c1.848,0,3.529,0.483,5.136,1.363c1.604,0.885,2.886,2.089,3.771,3.611c0.076,0.16,0.076,0.242,0.076,0.402
			c0,0.077,0,0.241-0.076,0.241c-0.084,0.077-0.084,0.077-0.16,0.16l-2.007,0.803h-0.082c0,0-0.077,0-0.16,0
			c-0.241,0-0.479-0.159-0.72-0.401c-0.643-0.963-1.529-1.683-2.567-2.167c-1.046-0.561-2.167-0.802-3.371-0.802
			c-1.286,0-2.484,0.318-3.612,0.963c-1.121,0.643-2.007,1.521-2.645,2.649c-0.643,1.121-0.963,2.325-0.963,3.688
			c0,1.287,0.32,2.485,0.963,3.607c0.638,1.127,1.523,2.013,2.645,2.649c1.128,0.644,2.326,0.968,3.612,0.968
			c1.204,0,2.325-0.241,3.371-0.803c1.038-0.566,1.925-1.286,2.567-2.249h2.728c0.076,0,0.159,0,0.241,0.084
			c0.076,0.076,0.076,0.153,0.076,0.236v5.695c0,0.082,0,0.16-0.076,0.242c-0.082,0.082-0.165,0.082-0.241,0.082h-2.486
			c-0.082,0-0.164,0-0.241-0.082c-0.082-0.082-0.082-0.16-0.082-0.242v-1.363c-1.523,1.204-3.447,1.841-5.779,1.841
			C160.86,90.254,159.096,89.777,157.489,88.815z M162.141,82.157c-0.077-0.083-0.158-0.242-0.158-0.325v-2.166
			c0-0.153,0.081-0.236,0.158-0.396c0.084-0.083,0.243-0.165,0.325-0.165h9.468c0.159,0,0.236,0.082,0.319,0.165
			c0.082,0.078,0.159,0.242,0.159,0.396v2.166c0,0.166-0.077,0.242-0.159,0.325c-0.083,0.082-0.242,0.159-0.319,0.159h-9.468
			C162.384,82.316,162.225,82.316,162.141,82.157z"/>
		<path fill="#FFFFFF" d="M181.237,70.523c0.241-0.562,0.726-0.886,1.286-0.886h3.529c0.721,0,1.121,0.324,1.364,0.968l6.976,19.013
			c0,0,0,0.076,0,0.159c0,0.242-0.158,0.401-0.4,0.401h-2.243c-0.401,0-0.644-0.077-0.803-0.159s-0.241-0.242-0.319-0.401
			l-1.044-2.892h-10.75l-1.044,2.892c-0.083,0.401-0.4,0.561-0.962,0.561h-2.248c-0.161,0-0.243-0.077-0.32-0.159
			c-0.082-0.082-0.082-0.242,0-0.401L181.237,70.523z M188.462,83.52l-3.854-10.59c-0.077-0.159-0.16-0.241-0.32-0.241
			c-0.158,0-0.24,0.082-0.323,0.241l-3.849,10.59H188.462z"/>
		<path fill="#FFFFFF" d="M216.783,69.56c0,0,0.076,0.077,0.159,0.159c0.076,0.083,0.159,0.242,0.159,0.401v19.42
			c0,0.153-0.083,0.318-0.159,0.396c-0.159,0.164-0.243,0.164-0.402,0.164h-2.007c-0.159,0-0.318-0.082-0.483-0.164
			c-0.16-0.16-0.16-0.243-0.16-0.396V77.665l-4.97,10.431c0,0.081-0.083,0.159-0.242,0.235c-0.082,0.083-0.242,0.083-0.324,0.083
			h-2.326h-0.076c-0.083,0-0.241,0-0.324-0.083c-0.077-0.076-0.16-0.154-0.243-0.235l-4.97-10.431v11.876
			c0,0.153-0.082,0.318-0.159,0.396c-0.165,0.164-0.242,0.164-0.484,0.164h-2.007c-0.159,0-0.318-0.082-0.4-0.164
			c-0.16-0.16-0.16-0.243-0.16-0.396v-19.42c0-0.159,0.082-0.318,0.16-0.401c0.082-0.082,0.241-0.159,0.4-0.159h2.007l0,0
			c0.083,0,0.242,0,0.319,0.077c0.083,0.082,0.165,0.165,0.242,0.242l6.817,14.202l6.823-14.202l0,0l0,0
			c0.077-0.16,0.159-0.242,0.401-0.319c0,0,0.077,0,0.159,0h2.007C216.699,69.56,216.783,69.56,216.783,69.56z"/>
		<path fill="#FFFFFF" d="M221.191,90.101c-0.159-0.164-0.159-0.324-0.159-0.483V70.121c0-0.159,0.083-0.318,0.159-0.483
			c0.159-0.154,0.319-0.154,0.484-0.154h12.916c0.158,0,0.4,0.077,0.478,0.154c0.165,0.165,0.242,0.242,0.242,0.483v2.008
			c0,0.159-0.077,0.324-0.242,0.478c-0.16,0.165-0.319,0.165-0.478,0.165H224.32v5.377h9.786c0.165,0,0.325,0.077,0.401,0.154
			c0.084,0.083,0.165,0.242,0.165,0.406v2.002c0,0.165-0.081,0.319-0.165,0.401c-0.076,0.083-0.236,0.159-0.401,0.159h-9.786v5.542
			h10.271c0.158,0,0.4,0.077,0.478,0.153c0.165,0.167,0.242,0.326,0.242,0.485v2.006c0,0.16-0.077,0.319-0.242,0.479
			c-0.16,0.164-0.319,0.164-0.478,0.164h-12.916C221.511,90.254,221.351,90.254,221.191,90.101z"/>
		<path fill="#FFFFFF" d="M252.483,87.292c-0.485,0.884-1.206,1.6-2.167,2.248c-0.561,0.318-1.282,0.638-2.166,0.879
			c-0.887,0.243-1.848,0.32-3.052,0.32h-0.319c-0.963-0.077-1.926-0.242-2.888-0.485c-0.961-0.235-1.764-0.637-2.49-1.121
			c-0.961-0.561-1.683-1.121-2.084-1.924c-0.082-0.16-0.159-0.319-0.159-0.483c0-0.154,0-0.32,0.077-0.396
			c0.082-0.164,0.165-0.241,0.325-0.319c0.076-0.082,0.318-0.241,0.644-0.483c0.317-0.242,0.561-0.401,0.802-0.483
			c0.159-0.077,0.396-0.16,0.561-0.16c0.161,0.083,0.319,0.16,0.478,0.325c0.244,0.396,0.645,0.802,1.205,1.121
			c0.643,0.396,1.286,0.637,2.09,0.88c0.798,0.164,1.599,0.319,2.325,0.319c1.282,0,2.325-0.236,3.129-0.716
			c0.479-0.241,0.803-0.566,0.963-0.968c0.158-0.401,0.317-0.879,0.317-1.439c0-0.484-0.076-0.804-0.317-1.127
			c-0.244-0.319-0.563-0.561-1.123-0.798c-0.565-0.242-1.369-0.483-2.491-0.726c-1.604-0.401-3.046-0.804-4.25-1.286
			c-1.286-0.561-2.325-1.282-2.969-2.244c-0.644-0.961-0.962-2.007-0.962-3.128c0-0.566,0.078-1.046,0.243-1.523
			c0.317-1.286,1.121-2.331,2.242-3.211s2.569-1.286,4.333-1.286c0.241,0,0.561,0,0.962,0.082c1.766,0.159,3.21,0.644,4.256,1.364
			c1.038,0.72,1.842,1.522,2.325,2.49c0.078,0.154,0.161,0.396,0.319,0.638c0,0.082,0.082,0.165,0.082,0.319
			c0,0.164,0,0.241-0.082,0.407c-0.078,0.153-0.158,0.24-0.319,0.24l-1.522,0.798c-0.166,0.083-0.4,0.159-0.644,0.083
			c-0.159-0.083-0.324-0.242-0.4-0.484c0-0.076-0.16-0.319-0.244-0.561c-0.399-0.721-0.962-1.286-1.764-1.605
			c-0.802-0.396-1.683-0.561-2.811-0.561c-0.879,0-1.599,0.165-2.324,0.561c-0.561,0.402-0.963,0.885-1.121,1.529
			c-0.083,0.153-0.083,0.395-0.083,0.637c0,0.484,0.158,0.967,0.482,1.446c0.319,0.478,0.804,0.804,1.447,1.038
			c0.88,0.326,2.159,0.727,3.849,1.128c0.963,0.236,1.764,0.401,2.408,0.644c0.639,0.242,1.204,0.478,1.682,0.803
			c1.446,0.879,2.167,2.32,2.167,4.25C253.202,85.444,252.961,86.406,252.483,87.292z"/>
	</g>
</g>
<g>
	<g>
		<g>
			<g>
				<path fill="#FFFFFF" d="M156.286,52.793c-0.159,0.159-0.401,0.319-0.561,0.319c-0.243,0-0.484,0.079-0.887,0.079h-1.758
					c-0.485,0-0.887-0.159-1.205-0.561l-5.695-7.783l-5.62,7.783c-0.077,0.163-0.241,0.322-0.478,0.402
					c-0.242,0.08-0.401,0.159-0.643,0.159h-2.007c-0.72,0-1.204-0.079-1.364-0.159c-0.083-0.08-0.16-0.159-0.16-0.239
					c0-0.242,0.16-0.484,0.402-0.882l7.136-10.029l-6.499-8.585l0,0c-0.159-0.242-0.236-0.48-0.236-0.644
					c0-0.08,0-0.159,0.077-0.239c0.083-0.162,0.242-0.242,0.401-0.322c0.16-0.079,0.325-0.079,0.484-0.079c0.159,0,0.318,0,0.318,0
					h1.688c0.478,0,0.879,0.16,1.121,0.481l4.977,6.336l0.318,0.483l9.226,11.793l0.643,0.962
					C156.286,52.23,156.368,52.552,156.286,52.793z M150.029,39.875c-0.159,0-0.242-0.079-0.401-0.159l-1.765-2.086
					c-0.082-0.162-0.16-0.322-0.16-0.401c0-0.163,0.078-0.242,0.16-0.402l3.529-4.492v-0.083c0.082-0.16,0.241-0.239,0.401-0.319
					c0.16-0.08,0.4-0.162,0.561-0.162h1.848h0.478c0.485,0,0.726,0.083,0.803,0.162c0.084,0.08,0.084,0.159,0.084,0.24
					c0,0.08-0.161,0.401-0.401,0.802c0,0,0,0,0,0.08l-4.977,6.579C150.271,39.796,150.188,39.875,150.029,39.875z"/>
			</g>
		</g>
		<g>
			<g>
				<path fill="#FFFFFF" d="M161.339,32.975c0-0.239,0.082-0.401,0.241-0.561c0.16-0.162,0.325-0.242,0.561-0.242h1.931
					c0.318,0,0.562,0.162,0.72,0.48l6.741,14.123l3.129-6.658l-3.129-6.662c0-0.079-0.082-0.159-0.082-0.322
					c0-0.239,0.082-0.398,0.242-0.561c0.159-0.159,0.318-0.239,0.561-0.239h1.924c0.159,0,0.325,0.08,0.484,0.16
					c0.158,0.079,0.235,0.242,0.318,0.401l1.522,3.208l2.008,4.173l3.211,6.737l6.658-14.119c0.083-0.159,0.159-0.242,0.318-0.401
					c0.165-0.08,0.325-0.16,0.484-0.16h2.084c0.241,0,0.401,0.08,0.561,0.239c0.165,0.163,0.242,0.322,0.242,0.561
					c0,0.163,0,0.243-0.077,0.322l-8.588,18.854c-0.077,0.162-0.16,0.242-0.319,0.401c-0.159,0.083-0.324,0.163-0.484,0.163h-1.44
					c-0.159,0-0.323-0.08-0.483-0.163c-0.16-0.08-0.242-0.239-0.319-0.401l-3.688-8.022l-3.612,7.862
					c-0.083,0.16-0.16,0.242-0.325,0.402c-0.159,0.079-0.318,0.159-0.478,0.159h-1.446c-0.159,0-0.319-0.08-0.479-0.159
					c-0.159-0.08-0.242-0.242-0.324-0.402l-8.741-18.933C161.421,33.217,161.339,33.134,161.339,32.975z M177.866,33.778
					c0-0.16,0-0.401,0.083-0.481l0.317-0.644c0.084-0.159,0.166-0.239,0.325-0.401c0.16-0.08,0.319-0.16,0.479-0.16h2.089
					c0.237,0,0.401,0.081,0.562,0.243c0.159,0.16,0.242,0.318,0.242,0.561c0,0.16,0,0.239-0.083,0.321l-1.847,3.931
					c-0.078,0.16-0.16,0.239-0.319,0.239c-0.16,0-0.242-0.08-0.319-0.239l-1.363-2.809C177.866,34.18,177.866,34.02,177.866,33.778z
					"/>
				<path fill="#FFFFFF" d="M198.006,51.589c-1.605-0.961-2.887-2.246-3.848-3.851c-0.963-1.605-1.447-3.371-1.447-5.295
					c0-1.926,0.484-3.692,1.447-5.295c0.961-1.604,2.242-2.889,3.848-3.851c1.606-0.962,3.371-1.443,5.294-1.443
					c1.925,0,3.69,0.481,5.296,1.443c1.605,0.962,2.886,2.247,3.854,3.851c0.962,1.603,1.44,3.369,1.44,5.295
					c0,1.925-0.479,3.69-1.44,5.295c-0.968,1.605-2.248,2.889-3.854,3.851c-1.605,0.963-3.371,1.444-5.296,1.444
					C201.377,53.033,199.612,52.552,198.006,51.589z M206.831,48.621c1.121-0.641,2.006-1.526,2.649-2.648
					c0.639-1.125,0.963-2.325,0.963-3.609c0-1.284-0.324-2.488-0.963-3.613c-0.644-1.121-1.528-2.003-2.649-2.646
					c-1.121-0.641-2.326-0.963-3.607-0.963c-1.286,0-2.567,0.322-3.611,0.963c-1.046,0.643-2.008,1.525-2.65,2.646
					c-0.639,1.125-0.963,2.329-0.963,3.613c0,1.285,0.324,2.485,0.963,3.609c0.643,1.122,1.528,2.007,2.65,2.648
					c1.121,0.64,2.325,0.961,3.611,0.961C204.588,49.582,205.786,49.261,206.831,48.621z"/>
				<path fill="#FFFFFF" d="M216.458,33.134c0-0.318,0.158-0.561,0.561-0.64c0.886-0.16,1.688-0.242,2.248-0.322
					c0.644-0.081,1.523-0.16,2.569-0.16c2.809,0,5.211,0.561,7.219,1.685c2.006,1.122,2.968,3.208,2.968,6.177
					c0,0.322,0,0.561,0,0.724c0,0.239-0.081,0.64-0.158,1.2c-0.16,0.564-0.402,1.205-0.886,2.007
					c-0.479,0.803-1.121,1.444-2.084,2.087c1.121,0.803,1.925,1.845,2.166,3.128c0.32,1.285,0.479,2.246,0.479,3.128
					c0,0.16-0.077,0.242-0.236,0.322c-0.159,0.08-0.324,0.159-0.483,0.159h-2.008c0,0-0.158,0-0.236,0
					c-0.165,0-0.241-0.079-0.4-0.159c-0.165-0.08-0.242-0.242-0.242-0.48c-0.083-1.685-0.401-2.81-0.886-3.53
					c-0.478-0.643-1.039-1.044-1.683-1.125c-0.962,0.242-2.165,0.322-3.451,0.322c-0.639,0-1.282,0-2.003-0.08v4.492
					c0,0.16-0.082,0.322-0.164,0.401c-0.077,0.08-0.237,0.159-0.479,0.159h-2.324c-0.159,0-0.326-0.079-0.402-0.159
					c-0.082-0.08-0.158-0.242-0.158-0.401V33.134H216.458z M222.153,44.53c1.925,0,3.371-0.321,4.333-0.965
					c0.962-0.641,1.523-1.284,1.765-1.845c0.243-0.641,0.324-1.042,0.324-1.443c0-0.163,0-0.322,0-0.644
					c0-1.765-0.643-2.967-1.929-3.689c-1.282-0.643-2.805-1.044-4.569-1.044c-1.045,0-1.848,0.082-2.568,0.241v9.146
					C220.549,44.447,221.351,44.53,222.153,44.53z"/>
				<path fill="#FFFFFF" d="M234.992,52.552c-0.159-0.08-0.159-0.242-0.159-0.481V32.653c0-0.159,0.076-0.318,0.159-0.48
					c0.16-0.081,0.242-0.16,0.401-0.16h2.007c0.16,0,0.318,0.079,0.401,0.16c0.077,0.08,0.159,0.242,0.159,0.48v16.77h9.067
					c0.159,0,0.235,0.08,0.318,0.159c0.082,0.08,0.16,0.243,0.16,0.322v2.326c0,0.162-0.078,0.242-0.16,0.322
					c-0.083,0.079-0.242,0.159-0.318,0.159h-11.717C235.234,52.711,235.069,52.711,234.992,52.552z"/>
				<path fill="#FFFFFF" d="M250.877,52.711H250.8c-0.166,0-0.325-0.08-0.483-0.159c-0.16-0.16-0.16-0.322-0.16-0.481V33.055
					c0-0.08,0.078-0.239,0.16-0.319c0.083-0.083,0.241-0.242,0.317-0.242c0.166,0,0.484-0.08,0.962-0.242
					c0.485-0.08,1.128-0.16,1.931-0.239c0.804-0.08,1.683-0.16,2.568-0.16c3.205,0,5.933,0.8,8.264,2.326
					c2.325,1.522,3.446,4.332,3.446,8.344c0,0.481,0,0.802,0,1.042c0,0.803-0.241,1.847-0.644,3.211
					c-0.4,1.363-1.522,2.806-3.287,4.25c-1.765,1.446-4.492,2.166-8.104,2.166C254.33,53.112,252.724,52.953,250.877,52.711z
					 M261.307,48.621c1.122-0.882,1.924-1.766,2.326-2.727c0.4-0.965,0.644-1.845,0.644-2.568c0-0.242,0-0.561,0-0.962
					c0-2.889-0.804-4.813-2.486-5.938c-1.605-1.042-3.529-1.606-5.695-1.606c-0.644,0-1.204,0-1.688,0.08
					c-0.479,0.082-0.88,0.082-1.039,0.162v14.52c1.039,0.163,2.002,0.322,2.964,0.322C258.497,49.904,260.103,49.423,261.307,48.621
					z"/>
			</g>
		</g>
	</g>
</g>
<linearGradient id="SVGID_1_" gradientUnits="userSpaceOnUse" x1="-458.0962" y1="-2111.9551" x2="487.5886" y2="-1858.5596" gradientTransform="matrix(0.1425 0 0 -0.1425 201.2791 -221.2839)">
	<stop  offset="0" style="stop-color:#1C2A55"/>
	<stop  offset="0.0699" style="stop-color:#772F85"/>
	<stop  offset="0.2097" style="stop-color:#D5206D"/>
	<stop  offset="0.3387" style="stop-color:#E89214"/>
	<stop  offset="0.5054" style="stop-color:#2BA23A"/>
	<stop  offset="0.6989" style="stop-color:#1E95D4"/>
	<stop  offset="0.8226" style="stop-color:#58207C"/>
	<stop  offset="1" style="stop-color:#88167A"/>
</linearGradient>
<rect x="131.335" y="60.972" fill="url(#SVGID_1_)" width="144.091" height="1.286"/>
<linearGradient id="SVGID_2_" gradientUnits="userSpaceOnUse" x1="-1311.2534" y1="-1701.6143" x2="-676.2267" y2="-1932.7451" gradientTransform="matrix(0.1425 0 0 -0.1425 201.2791 -221.2839)">
	<stop  offset="0" style="stop-color:#1C2A55"/>
	<stop  offset="0.0312" style="stop-color:#1C2A55"/>
	<stop  offset="0.0425" style="stop-color:#202A58"/>
	<stop  offset="0.0505" style="stop-color:#282A5E"/>
	<stop  offset="0.057" style="stop-color:#382869"/>
	<stop  offset="0.0626" style="stop-color:#4F2774"/>
	<stop  offset="0.0674" style="stop-color:#682C7F"/>
	<stop  offset="0.0699" style="stop-color:#772F85"/>
	<stop  offset="0.1324" style="stop-color:#792F85"/>
	<stop  offset="0.1549" style="stop-color:#802D83"/>
	<stop  offset="0.1709" style="stop-color:#8A2B80"/>
	<stop  offset="0.1839" style="stop-color:#99277C"/>
	<stop  offset="0.195" style="stop-color:#AD2276"/>
	<stop  offset="0.2047" style="stop-color:#C62270"/>
	<stop  offset="0.2097" style="stop-color:#D5206D"/>
	<stop  offset="0.2646" style="stop-color:#D5206B"/>
	<stop  offset="0.2844" style="stop-color:#D62666"/>
	<stop  offset="0.2986" style="stop-color:#D82E5D"/>
	<stop  offset="0.31" style="stop-color:#DB3B50"/>
	<stop  offset="0.3197" style="stop-color:#DE4F3F"/>
	<stop  offset="0.3284" style="stop-color:#E2692B"/>
	<stop  offset="0.336" style="stop-color:#E78619"/>
	<stop  offset="0.3387" style="stop-color:#E89214"/>
	<stop  offset="0.4032" style="stop-color:#E69215"/>
	<stop  offset="0.4264" style="stop-color:#E09315"/>
	<stop  offset="0.4429" style="stop-color:#D59516"/>
	<stop  offset="0.4563" style="stop-color:#C69615"/>
	<stop  offset="0.4678" style="stop-color:#B1991B"/>
	<stop  offset="0.4779" style="stop-color:#979A24"/>
	<stop  offset="0.4871" style="stop-color:#789C2E"/>
	<stop  offset="0.4955" style="stop-color:#549E35"/>
	<stop  offset="0.5031" style="stop-color:#36A138"/>
	<stop  offset="0.5054" style="stop-color:#2BA23A"/>
	<stop  offset="0.5659" style="stop-color:#2BA23C"/>
	<stop  offset="0.5877" style="stop-color:#28A142"/>
	<stop  offset="0.6032" style="stop-color:#27A14C"/>
	<stop  offset="0.6158" style="stop-color:#25A15C"/>
	<stop  offset="0.6265" style="stop-color:#1F9F70"/>
	<stop  offset="0.6361" style="stop-color:#1E9E8A"/>
	<stop  offset="0.6447" style="stop-color:#199BA7"/>
	<stop  offset="0.6523" style="stop-color:#1897C6"/>
	<stop  offset="0.6559" style="stop-color:#1E95D4"/>
	<stop  offset="0.7243" style="stop-color:#1E93D2"/>
	<stop  offset="0.749" style="stop-color:#1F8DCE"/>
	<stop  offset="0.7665" style="stop-color:#2083C6"/>
	<stop  offset="0.7807" style="stop-color:#2173BB"/>
	<stop  offset="0.7929" style="stop-color:#2D60AC"/>
	<stop  offset="0.8036" style="stop-color:#3A469B"/>
	<stop  offset="0.8131" style="stop-color:#502887"/>
	<stop  offset="0.8172" style="stop-color:#58207C"/>
	<stop  offset="0.8783" style="stop-color:#5A207C"/>
	<stop  offset="0.9004" style="stop-color:#611F7A"/>
	<stop  offset="0.9161" style="stop-color:#6B1D7B"/>
	<stop  offset="0.9287" style="stop-color:#7B197B"/>
	<stop  offset="0.9355" style="stop-color:#88167A"/>
</linearGradient>
<path fill="url(#SVGID_2_)" d="M117.375,58.649C117.375,58.649,117.375,58.729,117.375,58.649
	C117.375,58.729,117.375,58.649,117.375,58.649L117.375,58.649z"/>
<path fill="#59438F" d="M11.711,25.836c0,0,2.007,4.01,3.931,10.589l2.167-4.973L11.711,25.836z"/>
<path fill="#80478F" d="M21.982,40.838l6.498,6.257l1.688-4.25L17.809,31.453l-2.167,4.973c2.568,8.825,5.135,22.144,2.733,36.345
	l5.294-13.399C23.505,54.157,23.027,47.979,21.982,40.838z"/>
<path fill="#D42C78" d="M34.578,68.439l1.605,1.765l2.084-6.181l-9.544-9.786c0,0,3.447,17.33-3.371,33.374
	c0,0,1.924-0.721,5.455-1.766l3.771-10.99C34.82,73.089,34.82,70.923,34.578,68.439z"/>
<polygon fill="#D42C78" points="39.312,51.188 30.168,42.765 28.48,47.095 39.312,57.525 41.236,55.521 45.008,44.447 "/>
<path fill="#D42C78" d="M13.476,88.656c0,0,10.831-1.045,10.194-29.284l-5.294,13.399C17.49,78.065,15.885,83.361,13.476,88.656z"/>
<path fill="#D42C78" d="M18.375,72.771L18.375,72.771l5.294-13.399l0,0L18.375,72.771z"/>
<polygon fill="#D42C78" points="30.168,42.765 28.48,47.015 28.48,47.095 "/>
<path fill="#DEB343" d="M38.592,72.689c0,0,12.035-5.614,19.414-16.767c0,0,0.242,0.318,0.72,0.882l2.167-7.06
	c-1.204-1.446-2.167-2.809-2.727-3.931c0,0-9.067,15.483-18.936,19.172l-0.88-0.88l-2.084,6.18L38.592,72.689z"/>
<polygon fill="#DEB343" points="63.141,42.121 64.824,36.505 58.006,29.204 45.008,44.447 41.236,55.521 58.407,37.148 "/>
<path fill="#DEB343" d="M32.571,81.755c0,0,1.528-2.485,2.007-6.9l-3.771,10.99c4.492-1.286,11.55-2.886,20.216-3.771l1.688-5.696
	C45.492,77.021,38.433,78.544,32.571,81.755z"/>
<polygon fill="#81BA5A" points="77.019,56.884 78.943,49.582 77.98,50.465 64.824,36.505 63.141,42.121 "/>
<path fill="#81BA5A" d="M73.247,70.923l1.848-6.817c-2.568-2.331-9.947-9.149-14.279-14.444l-2.166,7.063
	C60.733,59.289,67.149,66.833,73.247,70.923z"/>
<path fill="#81BA5A" d="M52.794,76.377l-1.688,5.696c5.856-0.561,12.354-0.803,19.415-0.318l1.286-4.971
	C65.786,76.135,59.21,75.9,52.794,76.377z"/>
<path fill="#5EA4D4" d="M97.318,55.04c-0.083,0.72-0.083,1.522-0.16,2.246l0.561-2.409C97.637,54.957,97.477,54.957,97.318,55.04z"
	/>
<path fill="#5EA4D4" d="M77.178,57.124l17.654-16.366c0,0-1.204,4.011-2.007,10.268c1.842-0.883,3.53-1.444,5.136-1.844
	c1.039-7.061,3.128-14.763,6.818-23.027l0.082-0.318L78.866,49.503l-1.924,7.301L77.178,57.124z"/>
<path fill="#5EA4D4" stroke="#5EA4D4" stroke-width="0.25" stroke-miterlimit="10" d="M97.318,55.04
	c0.158-1.928,0.318-3.852,0.643-5.858c-1.606,0.321-3.37,0.964-5.136,1.844c-0.241,1.927-0.484,4.093-0.561,6.339
	C93.871,56.483,95.553,55.68,97.318,55.04z"/>
<path fill="#5EA4D4" d="M75.979,64.91c0,0-0.324-0.32-0.885-0.804l-1.848,6.817c0.885,0.644,1.766,1.122,2.65,1.605
	c0,0,6.818-9.709,16.369-15.164c0.077-2.325,0.319-4.412,0.561-6.339C87.933,53.355,82.396,57.607,75.979,64.91z"/>
<path fill="#5EA4D4" d="M71.724,76.785l-1.281,4.971c6.333,0.401,13.074,1.44,19.975,3.37l1.204-4.894
	C87.608,79.27,80.312,77.665,71.724,76.785z"/>
<path fill="#5EA4D4" d="M97.318,55.04c0.158-0.083,0.318-0.083,0.483-0.163l1.441-5.935c-0.402,0.079-0.803,0.159-1.281,0.239
	C97.719,51.188,97.477,53.191,97.318,55.04z"/>
<path fill="#5EA4D4" d="M92.265,57.365c-0.242,4.894-0.083,10.59,0.88,16.368l4.014-16.447c0-0.724,0.077-1.526,0.16-2.246
	C95.553,55.68,93.871,56.483,92.265,57.365z"/>
<path fill="#59438F" d="M106.945,53.916l0.72-4.091c-2.325-0.965-5.135-1.364-8.422-0.882l-1.441,5.935
	C100.689,53.916,103.817,53.513,106.945,53.916z"/>
<path fill="#59438F" d="M97.236,57.286l-4.008,16.447c0.401,2.402,0.962,4.894,1.765,7.297c0,0-1.204-0.319-3.288-0.881L90.5,85.043
	c3.37,0.885,6.735,2.006,10.105,3.37l0.726-4.008C99.243,78.946,96.757,69.483,97.236,57.286z"/>
<path fill="#59438F" d="M105.021,25.836l-0.083,0.079l-0.077,0.322C104.861,26.076,104.938,25.995,105.021,25.836z"/>
<path fill="#9F468C" d="M103.574,89.694c0,0-1.044-1.841-2.325-5.288l-0.721,4.008C101.567,88.892,102.613,89.298,103.574,89.694z"
	/>
<path fill="#9F468C" d="M107.665,49.825l-0.72,4.091c3.453,0.481,6.983,1.844,10.431,4.734l0,0
	C117.056,58.089,113.928,52.31,107.665,49.825z"/>
<path fill="#9F468C" d="M100.529,88.496L100.529,88.496l0.721-4.013l0,0L100.529,88.496z"/>
<path fill="#9F468C" d="M106.945,53.916L106.945,53.916l0.803-4.091l0,0L106.945,53.916z"/>
<g>
	<path fill="#060001" d="M59.369,0c32.791,0,59.37,26.581,59.37,59.372c0,32.786-26.579,59.369-59.37,59.369S0,92.158,0,59.372
		C0,26.581,26.578,0,59.369,0z"/>
	<g>
		<path fill="#59438F" d="M11.711,27.84c0,0,2.331,5.377,4.332,13.801l2.727-7.302L11.711,27.84z"/>
		<path fill="#80478F" d="M18.771,34.339l-2.727,7.302c1.529,6.499,2.727,14.842,2.491,24.071l4.734-13.72
			c-0.324-2.648-0.643-5.458-1.127-8.426l3.052,2.889l1.605-4.655L18.771,34.339z"/>
		<path fill="#D42C78" d="M28.723,56.24c0,0,3.128,17.811-4.333,34.664c0,0,0.88-0.324,2.567-0.803l8.825-27.116
			C33.616,61.214,31.208,59.05,28.723,56.24z"/>
		<polygon fill="#D42C78" points="26.716,41.641 25.11,46.375 37.465,57.846 39.07,52.953 		"/>
		<path fill="#D42C78" d="M13.399,90.663c0,0,13.96-1.122,9.787-38.751l-4.734,13.718C18.21,73.651,16.77,82.157,13.399,90.663z"/>
		<path fill="#DEB343" d="M51.909,52.15l-3.128,4.09c0,0,1.044,1.205,2.809,2.97l1.282-6.019
			C52.552,52.874,52.228,52.552,51.909,52.15z"/>
		<polygon fill="#DEB343" points="55.279,42.443 57.687,31.21 39.312,53.191 39.07,52.953 37.465,57.846 39.312,59.532 		"/>
		<path fill="#DEB343" d="M32.973,82.959c0,0,2.089-8.104,1.446-14.84l12.272,7.697c0,0,0.566-0.318,1.529-1.045l1.841-8.582
			c-1.04,0.803-2.084,1.688-3.288,2.49c0,0-4.734-0.885-10.991-5.695l-8.825,27.116c3.371-1.045,9.946-2.809,18.694-3.936
			l1.44-6.418C42.44,80.391,37.707,81.436,32.973,82.959z"/>
		<polygon fill="#81BA5A" points="58.407,39.073 68.837,50.545 70.201,44.288 57.764,31.21 57.687,31.21 55.279,42.443 		"/>
		<path fill="#81BA5A" d="M64.581,70.605l1.128-5.218c-1.045-0.798-2.25-1.842-3.613-2.963c1.765-1.849,3.689-4.018,5.619-6.343
			v-0.159l-3.293-4.011c0,0-2.166,2.886-6.174,6.897c-1.605-1.603-3.453-3.45-5.377-5.535l-1.282,6.015
			c0.88,0.879,1.925,1.925,3.046,3.046c-1.364,1.286-2.969,2.574-4.574,3.937l-1.841,8.583c1.924-1.364,5.696-4.25,10.43-8.902
			C60.491,67.47,62.498,69.077,64.581,70.605z"/>
		<path fill="#81BA5A" d="M47.092,79.666l-1.44,6.423c4.652-0.645,10.028-1.122,15.802-1.205l1.37-6.339
			C57.846,78.544,52.552,78.863,47.092,79.666z"/>
		<path fill="#5EA4D4" d="M67.716,55.842v0.16C67.716,56.001,67.716,55.922,67.716,55.842L67.716,55.842z"/>
		<path fill="#5EA4D4" d="M73.169,69.879c0,0-2.325-0.479-7.46-4.492l-1.128,5.218c3.135,2.243,6.423,4.25,9.551,5.454
			c0,0,2.97-4.652,7.862-9.545l1.364-7.143C79.987,62.017,76.458,65.47,73.169,69.879z"/>
		<path fill="#5EA4D4" d="M76.941,59.532l7.698-7.222l1.369-7.298c-4.172,3.849-7.625,6.98-8.104,7.46l-7.703-8.184l-1.363,6.257
			L76.941,59.532z"/>
		<path fill="#5EA4D4" d="M62.823,78.626l-1.37,6.34c5.218-0.083,10.832,0.077,16.77,0.72l1.121-5.938
			C74.61,79.105,68.997,78.626,62.823,78.626z"/>
		<path fill="#80478F" d="M105.983,24.552L105.983,24.552L105.983,24.552z"/>
		<path fill="#80478F" d="M99,50.707l-1.6,5.936c3.767-1.122,7.78-1.284,11.954-0.081l0.644-3.529
			C107.264,51.348,103.657,50.306,99,50.707z"/>
		<path fill="#80478F" d="M94.909,83.042c0,0-1.605-0.483-4.332-1.21l-1.441,5.461c4.492,0.884,9.066,2.084,13.718,3.528
			c0,0-7.06-13.476-5.455-34.259l-4.657,17.171C93.228,76.785,93.948,79.909,94.909,83.042z"/>
		<path fill="#59438F" d="M117.375,60.653c0,0-2.167-4.73-7.301-7.7l-0.644,3.53C111.999,57.286,114.648,58.649,117.375,60.653z"/>
		<path fill="#D42C78" d="M106.066,24.552h-0.083H106.066z"/>
		<path fill="#D42C78" d="M94.75,42.683c0,0-1.446,4.014-2.325,10.591c-2.567,1.364-5.779,3.288-9.149,6.098l-1.364,7.143
			c2.727-2.728,6.18-5.542,10.029-7.626c-0.237,4.415-0.077,9.468,0.802,14.928L99,50.707c-0.318,0-0.561,0.08-0.879,0.08
			c1.045-6.98,3.129-14.683,6.817-22.864c0,0-10.832,9.787-18.771,17.089l-1.363,7.298L94.75,42.683z"/>
		<path fill="#D42C78" d="M79.344,79.748l-1.121,5.938c3.53,0.402,7.142,0.963,10.832,1.688l1.446-5.459
			C87.851,81.195,84.001,80.391,79.344,79.748z"/>
		<path fill="#D42C78" d="M97.4,56.643L97.4,56.643C97.4,56.562,97.4,56.562,97.4,56.643L97.4,56.643z"/>
		<polygon fill="#D42C78" points="90.578,81.915 89.054,87.374 89.054,87.374 		"/>
		<path fill="#D42C78" d="M99,50.707l-6.257,23.109l0,0L97.4,56.643c0,0,0,0,0-0.081l0,0L99,50.707L99,50.707z"/>
	</g>
</g>
</svg>
